<svg width="78" height="78" viewBox="0 0 78 78" fill="none" xmlns="http://www.w3.org/2000/svg">
<g clip-path="url(#clip0_17_14)">
<circle cx="39" cy="39" r="39" fill="black"/>
<path d="M39 50C43.0944 50 46.5625 48.5719 49.4041 45.7155C52.2458 42.8592 53.6666 39.3985 53.6666 35.3334C53.6666 34.1515 53.5371 33.0252 53.278 31.9545C53.0201 30.8839 52.6528 29.8774 52.1761 28.935C51.444 29.4068 50.6612 29.7686 49.8276 30.0204C48.9928 30.2722 48.1336 30.398 47.25 30.398C45.5058 30.398 43.9023 29.9532 42.4393 29.0634C40.9763 28.1736 39.8298 26.9587 39 25.4187C38.1933 26.9587 37.053 28.1736 35.579 29.0634C34.1037 29.9532 32.4941 30.398 30.75 30.398C29.8663 30.398 29.0132 30.2722 28.1906 30.0204C27.3681 29.7686 26.5913 29.4184 25.8605 28.9699C25.3838 29.9354 25.0098 30.9535 24.7385 32.0242C24.4683 33.0949 24.3333 34.1979 24.3333 35.3334C24.3333 39.3973 25.7615 42.858 28.6178 45.7155C31.4741 48.5731 34.9348 50.0013 39 50ZM33.5 39.4584C34.1416 39.4584 34.6843 39.2365 35.128 38.7929C35.5716 38.3492 35.7928 37.8072 35.7916 37.1667C35.7916 36.525 35.5698 35.9824 35.1261 35.5387C34.6825 35.095 34.1404 34.8738 33.5 34.875C32.8583 34.875 32.3156 35.0969 31.872 35.5405C31.4283 35.9842 31.2071 36.5263 31.2083 37.1667C31.2083 37.8084 31.4301 38.351 31.8738 38.7947C32.3175 39.2384 32.8595 39.4596 33.5 39.4584ZM44.5 39.4584C45.1416 39.4584 45.6843 39.2365 46.128 38.7929C46.5716 38.3492 46.7928 37.8072 46.7916 37.1667C46.7916 36.525 46.5698 35.9824 46.1261 35.5387C45.6825 35.095 45.1404 34.8738 44.5 34.875C43.8583 34.875 43.3156 35.0969 42.872 35.5405C42.4283 35.9842 42.2071 36.5263 42.2083 37.1667C42.2083 37.8084 42.4301 38.351 42.8738 38.7947C43.3175 39.2384 43.8595 39.4596 44.5 39.4584ZM22.973 55.5C22.115 55.5 21.3896 55.1792 20.7968 54.5375C20.2052 53.8959 19.9431 53.146 20.0103 52.288L21.5558 35.4177C21.7758 33.1102 22.3765 30.9468 23.358 28.9277C24.3394 26.9086 25.6062 25.1523 27.1585 23.6587C28.7107 22.1652 30.4994 20.9875 32.5246 20.1259C34.5498 19.2642 36.7083 18.8334 39 18.8334C41.2916 18.8334 43.4501 19.2642 45.4753 20.1259C47.4993 20.9875 49.288 22.1652 50.8415 23.6587C52.3937 25.1523 53.6605 26.9086 54.642 28.9277C55.6234 30.9468 56.2241 33.1102 56.4441 35.4177L57.9896 52.288C58.0568 53.146 57.7941 53.8959 57.2013 54.5375C56.6097 55.1792 55.885 55.5 55.027 55.5H22.973Z" fill="white"/>
</g>
<defs>
<clipPath id="clip0_17_14">
<rect width="78" height="78" fill="white"/>
</clipPath>
</defs>
</svg>
