<svg width="78" height="78" viewBox="0 0 78 78" fill="none" xmlns="http://www.w3.org/2000/svg">
<g clip-path="url(#clip0_17_12)">
<circle cx="39" cy="39" r="39" fill="black"/>
<path fill-rule="evenodd" clip-rule="evenodd" d="M46.513 21.763C47.2589 21.0179 48.1662 20.4544 49.1647 20.1159C50.1631 19.7775 51.2261 19.6732 52.2713 19.8111C53.3165 19.9491 54.316 20.3256 55.1925 20.9115C56.0689 21.4974 56.7989 22.2771 57.326 23.1902C57.853 24.1032 58.163 25.1253 58.232 26.1773C58.3009 27.2294 58.127 28.2831 57.7237 29.2572C57.3203 30.2313 56.6984 31.0996 55.9059 31.7949C55.1134 32.4902 54.1716 32.9939 53.1533 33.2672L50 34.1105V39C49.9997 39.3645 49.8546 39.714 49.5967 39.9717L48.2217 41.3467C47.9639 41.6042 47.6144 41.7488 47.25 41.7488C46.8856 41.7488 46.5362 41.6042 46.2783 41.3467L44.5 39.5683L29.9433 54.125C29.0633 55.0052 27.8697 55.4998 26.625 55.5C26.3697 55.4998 26.1169 55.5498 25.881 55.6474C25.645 55.7449 25.4306 55.8879 25.25 56.0683L23.4717 57.8467C23.2139 58.1042 22.8644 58.2488 22.5 58.2488C22.1356 58.2488 21.7862 58.1042 21.5283 57.8467L20.1533 56.4717C19.8959 56.2138 19.7512 55.8644 19.7512 55.5C19.7512 55.1356 19.8959 54.7861 20.1533 54.5283L21.9317 52.75C22.1121 52.5694 22.2551 52.355 22.3526 52.119C22.4502 51.8831 22.5002 51.6303 22.5 51.375C22.5 50.1283 22.995 48.9367 23.875 48.0567L38.4317 33.5L36.6533 31.7217C36.3959 31.4638 36.2512 31.1144 36.2512 30.75C36.2512 30.3856 36.3959 30.0361 36.6533 29.7783L38.0283 28.4033C38.286 28.1454 38.6355 28.0003 39 28H43.8877L44.7328 24.8467C45.0353 23.7155 45.6312 22.6467 46.513 21.763ZM40.375 35.4452L25.8183 50C25.6379 50.1806 25.4949 50.395 25.3974 50.6309C25.2999 50.8669 25.2498 51.1197 25.25 51.375C25.25 51.958 25.14 52.53 24.9347 53.0653C25.4739 52.857 26.047 52.7501 26.625 52.75C27.1402 52.75 27.6352 52.5447 28 52.1817L42.5567 37.625L40.375 35.4452Z" fill="white"/>
</g>
<defs>
<clipPath id="clip0_17_12">
<rect width="78" height="78" fill="white"/>
</clipPath>
</defs>
</svg>
